<svg width="40" height="40" viewBox="0 0 40 40" fill="none" xmlns="http://www.w3.org/2000/svg">
<mask id="path-1-outside-1_24_36" maskUnits="userSpaceOnUse" x="2.98291" y="3.99988" width="35" height="35" fill="black">
<rect fill="white" x="2.98291" y="3.99988" width="35" height="35"/>
<path fill-rule="evenodd" clip-rule="evenodd" d="M12.5725 33.253C13.7625 33.253 14.7308 34.2197 14.7308 35.4097C14.7308 36.5997 13.7625 37.568 12.5725 37.568C11.3825 37.568 10.4158 36.5997 10.4158 35.4097C10.4158 34.2197 11.3825 33.253 12.5725 33.253ZM31.373 33.253C32.5646 33.253 33.533 34.2197 33.533 35.4097C33.533 36.5997 32.5646 37.568 31.373 37.568C30.183 37.568 29.2163 36.5997 29.2163 35.4097C29.2163 34.2197 30.183 33.253 31.373 33.253ZM5.44615 5.01569L8.91282 5.61569C9.47115 5.71402 9.89615 6.17736 9.94449 6.74402L10.3362 11.4124L11.7926 11.413C12.0302 11.4131 12.2654 11.4132 12.498 11.4133L15.1719 11.4146C15.385 11.4147 15.5957 11.4148 15.8041 11.4149L18.7565 11.4165C18.9419 11.4166 19.1252 11.4167 19.3062 11.4168L21.3751 11.4182C21.539 11.4183 21.7008 11.4184 21.8606 11.4185L23.6803 11.4198C23.8239 11.4199 23.9657 11.4201 24.1054 11.4202L25.692 11.4215C25.8168 11.4216 25.9398 11.4218 26.061 11.4219L27.1037 11.4229C27.2144 11.423 27.3233 11.4231 27.4306 11.4233L28.6382 11.4247C28.7323 11.4248 28.8249 11.4249 28.916 11.425L29.9356 11.4264C30.0146 11.4266 30.0922 11.4267 30.1684 11.4268L30.8164 11.4279C30.8843 11.428 30.9509 11.4281 31.0162 11.4282L31.738 11.4297C31.7932 11.4298 31.8472 11.43 31.9 11.4301L32.3443 11.4312C32.3903 11.4313 32.4352 11.4314 32.479 11.4316L32.9552 11.4331C32.9909 11.4332 33.0257 11.4333 33.0595 11.4334L33.3391 11.4346C33.3675 11.4347 33.3951 11.4348 33.4219 11.435L33.7047 11.4365C33.7253 11.4366 33.7451 11.4368 33.7642 11.4369L33.9184 11.4381C33.9336 11.4382 33.9482 11.4383 33.9622 11.4385L34.0732 11.4396C34.0839 11.4398 34.0942 11.4399 34.1039 11.44L34.1794 11.4412C34.1865 11.4414 34.1933 11.4415 34.1996 11.4416L34.2474 11.4428C34.2517 11.443 34.2558 11.4431 34.2596 11.4432L34.2942 11.4449L34.3001 11.4453C34.3164 11.4468 34.3211 11.4474 34.3211 11.4474C35.2495 11.5824 36.0662 12.0674 36.6228 12.814C37.1795 13.559 37.4128 14.4774 37.2795 15.3974L35.6978 26.3274C35.3995 28.4074 33.5928 29.9757 31.4928 29.9757H13.2912C11.0962 29.9757 9.23782 28.2624 9.05948 26.0707L7.53282 7.91402L5.02115 7.48069C4.33949 7.36069 3.88449 6.71569 4.00115 6.03402C4.12115 5.35236 4.77949 4.90902 5.44615 5.01569ZM11.4582 13.9129L10.5462 13.9124L11.5512 25.8657C11.6245 26.7857 12.3762 27.4757 13.2945 27.4757H31.4895C32.3578 27.4757 33.0995 26.829 33.2228 25.9707L34.8062 15.039C34.8428 14.779 34.7778 14.519 34.6195 14.309C34.4628 14.0974 34.2328 13.9607 33.9728 13.924C33.9608 13.9245 33.932 13.9249 33.8873 13.9253L33.706 13.9263C33.6681 13.9265 33.6264 13.9266 33.581 13.9268L32.6368 13.9282C32.5572 13.9283 32.4743 13.9283 32.3884 13.9283L30.1685 13.9283C30.0446 13.9282 29.9184 13.9282 29.7899 13.9281L27.2564 13.9266C27.1046 13.9264 26.9512 13.9263 26.7962 13.9262L25.3626 13.9251C25.1993 13.9249 25.0348 13.9248 24.8692 13.9246L23.3507 13.9233C23.1792 13.9232 23.0069 13.923 22.8339 13.9228L21.7879 13.9219C21.6124 13.9217 21.4364 13.9216 21.26 13.9214L19.6638 13.9199C19.4858 13.9197 19.3078 13.9196 19.1297 13.9194L18.0619 13.9184C17.8842 13.9182 17.7067 13.9181 17.5296 13.9179L16.4709 13.917C16.2953 13.9168 16.1202 13.9166 15.9458 13.9165L14.3949 13.9152C14.2251 13.915 14.0561 13.9149 13.8882 13.9147L11.9283 13.9132C11.7701 13.9131 11.6134 13.913 11.4582 13.9129ZM28.8127 17.5729C29.5026 17.5729 30.0627 18.1329 30.0627 18.8229C30.0627 19.5129 29.5026 20.0729 28.8127 20.0729H24.1927C23.501 20.0729 22.9427 19.5129 22.9427 18.8229C22.9427 18.1329 23.501 17.5729 24.1927 17.5729H28.8127Z"/>
</mask>
<path fill-rule="evenodd" clip-rule="evenodd" d="M12.5725 33.253C13.7625 33.253 14.7308 34.2197 14.7308 35.4097C14.7308 36.5997 13.7625 37.568 12.5725 37.568C11.3825 37.568 10.4158 36.5997 10.4158 35.4097C10.4158 34.2197 11.3825 33.253 12.5725 33.253ZM31.373 33.253C32.5646 33.253 33.533 34.2197 33.533 35.4097C33.533 36.5997 32.5646 37.568 31.373 37.568C30.183 37.568 29.2163 36.5997 29.2163 35.4097C29.2163 34.2197 30.183 33.253 31.373 33.253ZM5.44615 5.01569L8.91282 5.61569C9.47115 5.71402 9.89615 6.17736 9.94449 6.74402L10.3362 11.4124L11.7926 11.413C12.0302 11.4131 12.2654 11.4132 12.498 11.4133L15.1719 11.4146C15.385 11.4147 15.5957 11.4148 15.8041 11.4149L18.7565 11.4165C18.9419 11.4166 19.1252 11.4167 19.3062 11.4168L21.3751 11.4182C21.539 11.4183 21.7008 11.4184 21.8606 11.4185L23.6803 11.4198C23.8239 11.4199 23.9657 11.4201 24.1054 11.4202L25.692 11.4215C25.8168 11.4216 25.9398 11.4218 26.061 11.4219L27.1037 11.4229C27.2144 11.423 27.3233 11.4231 27.4306 11.4233L28.6382 11.4247C28.7323 11.4248 28.8249 11.4249 28.916 11.425L29.9356 11.4264C30.0146 11.4266 30.0922 11.4267 30.1684 11.4268L30.8164 11.4279C30.8843 11.428 30.9509 11.4281 31.0162 11.4282L31.738 11.4297C31.7932 11.4298 31.8472 11.43 31.9 11.4301L32.3443 11.4312C32.3903 11.4313 32.4352 11.4314 32.479 11.4316L32.9552 11.4331C32.9909 11.4332 33.0257 11.4333 33.0595 11.4334L33.3391 11.4346C33.3675 11.4347 33.3951 11.4348 33.4219 11.435L33.7047 11.4365C33.7253 11.4366 33.7451 11.4368 33.7642 11.4369L33.9184 11.4381C33.9336 11.4382 33.9482 11.4383 33.9622 11.4385L34.0732 11.4396C34.0839 11.4398 34.0942 11.4399 34.1039 11.44L34.1794 11.4412C34.1865 11.4414 34.1933 11.4415 34.1996 11.4416L34.2474 11.4428C34.2517 11.443 34.2558 11.4431 34.2596 11.4432L34.2942 11.4449L34.3001 11.4453C34.3164 11.4468 34.3211 11.4474 34.3211 11.4474C35.2495 11.5824 36.0662 12.0674 36.6228 12.814C37.1795 13.559 37.4128 14.4774 37.2795 15.3974L35.6978 26.3274C35.3995 28.4074 33.5928 29.9757 31.4928 29.9757H13.2912C11.0962 29.9757 9.23782 28.2624 9.05948 26.0707L7.53282 7.91402L5.02115 7.48069C4.33949 7.36069 3.88449 6.71569 4.00115 6.03402C4.12115 5.35236 4.77949 4.90902 5.44615 5.01569ZM11.4582 13.9129L10.5462 13.9124L11.5512 25.8657C11.6245 26.7857 12.3762 27.4757 13.2945 27.4757H31.4895C32.3578 27.4757 33.0995 26.829 33.2228 25.9707L34.8062 15.039C34.8428 14.779 34.7778 14.519 34.6195 14.309C34.4628 14.0974 34.2328 13.9607 33.9728 13.924C33.9608 13.9245 33.932 13.9249 33.8873 13.9253L33.706 13.9263C33.6681 13.9265 33.6264 13.9266 33.581 13.9268L32.6368 13.9282C32.5572 13.9283 32.4743 13.9283 32.3884 13.9283L30.1685 13.9283C30.0446 13.9282 29.9184 13.9282 29.7899 13.9281L27.2564 13.9266C27.1046 13.9264 26.9512 13.9263 26.7962 13.9262L25.3626 13.9251C25.1993 13.9249 25.0348 13.9248 24.8692 13.9246L23.3507 13.9233C23.1792 13.9232 23.0069 13.923 22.8339 13.9228L21.7879 13.9219C21.6124 13.9217 21.4364 13.9216 21.26 13.9214L19.6638 13.9199C19.4858 13.9197 19.3078 13.9196 19.1297 13.9194L18.0619 13.9184C17.8842 13.9182 17.7067 13.9181 17.5296 13.9179L16.4709 13.917C16.2953 13.9168 16.1202 13.9166 15.9458 13.9165L14.3949 13.9152C14.2251 13.915 14.0561 13.9149 13.8882 13.9147L11.9283 13.9132C11.7701 13.9131 11.6134 13.913 11.4582 13.9129ZM28.8127 17.5729C29.5026 17.5729 30.0627 18.1329 30.0627 18.8229C30.0627 19.5129 29.5026 20.0729 28.8127 20.0729H24.1927C23.501 20.0729 22.9427 19.5129 22.9427 18.8229C22.9427 18.1329 23.501 17.5729 24.1927 17.5729H28.8127Z" fill="black"/>
<path fill-rule="evenodd" clip-rule="evenodd" d="M12.5725 33.253C13.7625 33.253 14.7308 34.2197 14.7308 35.4097C14.7308 36.5997 13.7625 37.568 12.5725 37.568C11.3825 37.568 10.4158 36.5997 10.4158 35.4097C10.4158 34.2197 11.3825 33.253 12.5725 33.253ZM31.373 33.253C32.5646 33.253 33.533 34.2197 33.533 35.4097C33.533 36.5997 32.5646 37.568 31.373 37.568C30.183 37.568 29.2163 36.5997 29.2163 35.4097C29.2163 34.2197 30.183 33.253 31.373 33.253ZM5.44615 5.01569L8.91282 5.61569C9.47115 5.71402 9.89615 6.17736 9.94449 6.74402L10.3362 11.4124L11.7926 11.413C12.0302 11.4131 12.2654 11.4132 12.498 11.4133L15.1719 11.4146C15.385 11.4147 15.5957 11.4148 15.8041 11.4149L18.7565 11.4165C18.9419 11.4166 19.1252 11.4167 19.3062 11.4168L21.3751 11.4182C21.539 11.4183 21.7008 11.4184 21.8606 11.4185L23.6803 11.4198C23.8239 11.4199 23.9657 11.4201 24.1054 11.4202L25.692 11.4215C25.8168 11.4216 25.9398 11.4218 26.061 11.4219L27.1037 11.4229C27.2144 11.423 27.3233 11.4231 27.4306 11.4233L28.6382 11.4247C28.7323 11.4248 28.8249 11.4249 28.916 11.425L29.9356 11.4264C30.0146 11.4266 30.0922 11.4267 30.1684 11.4268L30.8164 11.4279C30.8843 11.428 30.9509 11.4281 31.0162 11.4282L31.738 11.4297C31.7932 11.4298 31.8472 11.43 31.9 11.4301L32.3443 11.4312C32.3903 11.4313 32.4352 11.4314 32.479 11.4316L32.9552 11.4331C32.9909 11.4332 33.0257 11.4333 33.0595 11.4334L33.3391 11.4346C33.3675 11.4347 33.3951 11.4348 33.4219 11.435L33.7047 11.4365C33.7253 11.4366 33.7451 11.4368 33.7642 11.4369L33.9184 11.4381C33.9336 11.4382 33.9482 11.4383 33.9622 11.4385L34.0732 11.4396C34.0839 11.4398 34.0942 11.4399 34.1039 11.44L34.1794 11.4412C34.1865 11.4414 34.1933 11.4415 34.1996 11.4416L34.2474 11.4428C34.2517 11.443 34.2558 11.4431 34.2596 11.4432L34.2942 11.4449L34.3001 11.4453C34.3164 11.4468 34.3211 11.4474 34.3211 11.4474C35.2495 11.5824 36.0662 12.0674 36.6228 12.814C37.1795 13.559 37.4128 14.4774 37.2795 15.3974L35.6978 26.3274C35.3995 28.4074 33.5928 29.9757 31.4928 29.9757H13.2912C11.0962 29.9757 9.23782 28.2624 9.05948 26.0707L7.53282 7.91402L5.02115 7.48069C4.33949 7.36069 3.88449 6.71569 4.00115 6.03402C4.12115 5.35236 4.77949 4.90902 5.44615 5.01569ZM11.4582 13.9129L10.5462 13.9124L11.5512 25.8657C11.6245 26.7857 12.3762 27.4757 13.2945 27.4757H31.4895C32.3578 27.4757 33.0995 26.829 33.2228 25.9707L34.8062 15.039C34.8428 14.779 34.7778 14.519 34.6195 14.309C34.4628 14.0974 34.2328 13.9607 33.9728 13.924C33.9608 13.9245 33.932 13.9249 33.8873 13.9253L33.706 13.9263C33.6681 13.9265 33.6264 13.9266 33.581 13.9268L32.6368 13.9282C32.5572 13.9283 32.4743 13.9283 32.3884 13.9283L30.1685 13.9283C30.0446 13.9282 29.9184 13.9282 29.7899 13.9281L27.2564 13.9266C27.1046 13.9264 26.9512 13.9263 26.7962 13.9262L25.3626 13.9251C25.1993 13.9249 25.0348 13.9248 24.8692 13.9246L23.3507 13.9233C23.1792 13.9232 23.0069 13.923 22.8339 13.9228L21.7879 13.9219C21.6124 13.9217 21.4364 13.9216 21.26 13.9214L19.6638 13.9199C19.4858 13.9197 19.3078 13.9196 19.1297 13.9194L18.0619 13.9184C17.8842 13.9182 17.7067 13.9181 17.5296 13.9179L16.4709 13.917C16.2953 13.9168 16.1202 13.9166 15.9458 13.9165L14.3949 13.9152C14.2251 13.915 14.0561 13.9149 13.8882 13.9147L11.9283 13.9132C11.7701 13.9131 11.6134 13.913 11.4582 13.9129ZM28.8127 17.5729C29.5026 17.5729 30.0627 18.1329 30.0627 18.8229C30.0627 19.5129 29.5026 20.0729 28.8127 20.0729H24.1927C23.501 20.0729 22.9427 19.5129 22.9427 18.8229C22.9427 18.1329 23.501 17.5729 24.1927 17.5729H28.8127Z" stroke="black" mask="url(#path-1-outside-1_24_36)"/>
</svg>
