<svg width="40" height="40" viewBox="0 0 40 40" fill="none" xmlns="http://www.w3.org/2000/svg">
<path d="M19.868 36.7002H19.8682C22.7024 36.7002 26.0369 36.5424 28.6692 35.6837C29.9871 35.2537 31.1481 34.6422 31.9817 33.7696C32.8211 32.8907 33.3165 31.7591 33.3165 30.3218C33.3165 28.7667 32.7102 27.5767 31.7455 26.678C30.7883 25.7862 29.4861 25.1876 28.0932 24.7826C25.3086 23.9731 22.0782 23.9149 20.2742 23.9105H20.2734L19.5188 23.911L19.5178 23.911C16.7044 23.9246 13.4557 24.1103 10.9039 24.9803C9.62607 25.4159 8.50467 26.029 7.70093 26.8946C6.89177 27.7659 6.4165 28.8808 6.4165 30.2885C6.4165 31.8436 7.02299 33.0337 7.98799 33.9324C8.94551 34.8242 10.2481 35.4227 11.6414 35.8277C14.4268 36.6372 17.658 36.6954 19.4622 36.6998H19.4626L19.868 36.7002ZM19.8141 21.2812H19.8148L11.0165 12.1778L10.7665 12.177C10.7665 12.1771 10.7665 12.1773 10.7665 12.1774C10.7496 17.182 14.8061 21.2657 19.8141 21.2812ZM13.6465 12.1836V12.1828C13.6465 8.75265 16.4378 5.96282 19.8682 5.96282C23.2967 5.96282 26.0865 8.75252 26.0865 12.1828C26.0865 15.6115 23.2967 18.4028 19.8682 18.4028H19.8203C16.4052 18.3897 13.6353 15.6021 13.6465 12.1836ZM9.4165 30.2885C9.4165 29.249 10.1802 28.4027 11.9345 27.808C13.6827 27.2153 16.3251 26.9102 19.8682 26.9102C23.4103 26.9102 26.0515 27.2182 27.7989 27.8163C29.5512 28.416 30.3165 29.2701 30.3165 30.3218C30.3165 31.3614 29.5531 32.2077 27.7995 32.8024C26.0519 33.395 23.4104 33.7002 19.8682 33.7002C16.3252 33.7002 13.6831 33.3921 11.9351 32.794C10.1821 32.1942 9.4165 31.3402 9.4165 30.2885Z" fill="black" stroke="black" stroke-width="0.5"/>
</svg>
