<svg width="40" height="40" viewBox="0 0 40 40" fill="none" xmlns="http://www.w3.org/2000/svg">
<path d="M36.9882 35.487L36.9879 35.4867L32.0052 30.5144C34.5804 27.5918 36.145 23.7567 36.145 19.5633C36.145 10.42 28.7083 2.98331 19.565 2.98331C10.4218 2.98331 2.98334 10.42 2.98334 19.5633C2.98334 28.7066 10.4217 36.145 19.565 36.145C23.3631 36.145 26.8673 34.8611 29.6655 32.7051L34.7269 37.7523L34.7274 37.7528C35.0403 38.0636 35.45 38.2195 35.8573 38.2195C36.2653 38.2195 36.678 38.0642 36.9907 37.7478C37.6155 37.1221 37.6123 36.1111 36.9882 35.487ZM6.18334 19.5633C6.18334 12.185 12.1866 6.18331 19.565 6.18331C26.9417 6.18331 32.945 12.185 32.945 19.5633C32.945 26.9417 26.9417 32.945 19.565 32.945C12.1866 32.945 6.18334 26.9417 6.18334 19.5633Z" fill="black" stroke="black" stroke-width="0.7"/>
</svg>
