<svg width="28" height="28" viewBox="0 0 28 28" fill="none" xmlns="http://www.w3.org/2000/svg">
<g id="Star">
<g id="Iconly/Bold/Star">
<g id="Star_2">
<path id="Vector" d="M20.905 16.7068C20.6029 16.9996 20.464 17.4231 20.5329 17.8385L21.57 23.5785C21.6575 24.065 21.4522 24.5573 21.045 24.8385C20.646 25.1301 20.1152 25.1651 19.68 24.9318L14.5129 22.2368C14.3332 22.1411 14.1337 22.0898 13.9295 22.084H13.6134C13.5037 22.1003 13.3964 22.1353 13.2984 22.189L8.13003 24.8968C7.87453 25.0251 7.5852 25.0706 7.3017 25.0251C6.61103 24.8945 6.1502 24.2365 6.26336 23.5423L7.3017 17.8023C7.37053 17.3835 7.2317 16.9576 6.92953 16.6601L2.7167 12.5768C2.36436 12.235 2.24186 11.7216 2.40286 11.2585C2.5592 10.7965 2.9582 10.4593 3.44003 10.3835L9.23836 9.54229C9.67936 9.49679 10.0667 9.22845 10.265 8.83179L12.82 3.59345C12.8807 3.47679 12.9589 3.36945 13.0534 3.27845L13.1584 3.19679C13.2132 3.13612 13.2762 3.08595 13.3462 3.04512L13.4734 2.99845L13.6717 2.91679H14.1629C14.6015 2.96229 14.9877 3.22479 15.1895 3.61679L17.7784 8.83179C17.965 9.21329 18.3279 9.47812 18.7467 9.54229L24.545 10.3835C25.035 10.4535 25.4445 10.7918 25.6067 11.2585C25.7595 11.7263 25.6277 12.2396 25.2684 12.5768L20.905 16.7068Z" fill="#FFB800"/>
</g>
</g>
</g>
</svg>
