<svg width="275" height="49" viewBox="0 0 275 49" fill="none" xmlns="http://www.w3.org/2000/svg">
<path d="M14.208 35.36L0.704 1.056H11.008L19.264 23.52L27.52 1.056H37.824L19.136 48.8H8.896L14.208 35.36ZM58.739 36.768C55.3257 36.768 52.1683 35.9787 49.267 34.4C46.4083 32.8213 44.147 30.6453 42.483 27.872C40.819 25.0987 39.987 21.984 39.987 18.528C39.987 15.072 40.819 11.9573 42.483 9.184C44.147 6.41066 46.4083 4.23466 49.267 2.656C52.1683 1.07733 55.3257 0.287998 58.739 0.287998C62.1523 0.287998 65.2883 1.07733 68.147 2.656C71.0057 4.23466 73.267 6.41066 74.931 9.184C76.595 11.9573 77.427 15.072 77.427 18.528C77.427 21.984 76.595 25.0987 74.931 27.872C73.267 30.6453 71.0057 32.8213 68.147 34.4C65.2883 35.9787 62.1523 36.768 58.739 36.768ZM49.907 18.528C49.907 21.344 50.7177 23.648 52.339 25.44C54.003 27.232 56.1363 28.128 58.739 28.128C61.3417 28.128 63.4537 27.232 65.075 25.44C66.6963 23.648 67.507 21.344 67.507 18.528C67.507 15.712 66.675 13.408 65.011 11.616C63.3897 9.824 61.299 8.928 58.739 8.928C56.1363 8.928 54.003 9.824 52.339 11.616C50.7177 13.408 49.907 15.712 49.907 18.528ZM95.6265 36.768C91.4452 36.768 88.1812 35.4667 85.8345 32.864C83.5305 30.2187 82.3785 26.6773 82.3785 22.24V1.056H91.9785V21.472C91.9785 23.4773 92.5545 25.0987 93.7065 26.336C94.9012 27.5307 96.4585 28.128 98.3785 28.128C100.299 28.128 101.835 27.5307 102.987 26.336C104.181 25.0987 104.779 23.4773 104.779 21.472V1.056H114.379V36H105.419V31.776C104.523 33.44 103.221 34.6987 101.515 35.552C99.8505 36.3627 97.8878 36.768 95.6265 36.768ZM121.395 1.056H130.355V6.304C131.208 4.256 132.424 2.80533 134.003 1.952C135.582 1.09866 137.523 0.671997 139.827 0.671997H141.875V8.992H138.867C136.478 8.992 134.558 9.71733 133.107 11.168C131.699 12.6187 130.995 14.624 130.995 17.184V36H121.395V1.056ZM143.267 1.056H153.187L159.971 21.344L167.587 1.056H175.907L183.459 21.344L190.243 1.056H200.227L188.131 36H179.811L171.747 13.6L163.619 36H155.299L143.267 1.056ZM214.024 36.768C210.226 36.768 207.24 35.872 205.064 34.08C202.888 32.288 201.799 29.8133 201.799 26.656C201.799 23.6693 202.823 21.2373 204.872 19.36C206.962 17.44 210.077 16.1387 214.216 15.456L223.88 13.92V12.96C223.88 11.6373 223.346 10.528 222.28 9.632C221.213 8.736 219.805 8.288 218.056 8.288C216.349 8.288 214.834 8.75733 213.512 9.696C212.232 10.592 211.293 11.8293 210.696 13.408L203.016 9.76C204.04 6.85867 205.938 4.55467 208.712 2.848C211.528 1.14133 214.792 0.287998 218.503 0.287998C221.405 0.287998 223.986 0.821331 226.248 1.888C228.552 2.95466 230.322 4.448 231.56 6.368C232.84 8.288 233.479 10.4853 233.479 12.96V36H224.52V32.736C223.154 34.1013 221.618 35.1253 219.912 35.808C218.205 36.448 216.242 36.768 214.024 36.768ZM211.72 26.336C211.72 27.4027 212.104 28.2347 212.872 28.832C213.682 29.4293 214.706 29.728 215.944 29.728C218.29 29.728 220.189 29.0027 221.64 27.552C223.133 26.0587 223.88 24.224 223.88 22.048V20.96L215.944 22.368C214.536 22.624 213.469 23.072 212.744 23.712C212.061 24.352 211.72 25.2267 211.72 26.336ZM251.208 35.36L237.704 1.056H248.008L256.264 23.52L264.52 1.056H274.824L256.136 48.8H245.896L251.208 35.36Z" fill="black"/>
</svg>
